<?xml version="1.0" encoding="utf-8"?>
<!-- Generator: Adobe Illustrator 22.0.0, SVG Export Plug-In . SVG Version: 6.00 Build 0)  -->
<svg version="1.1" id="Layer_1" xmlns="http://www.w3.org/2000/svg" xmlns:xlink="http://www.w3.org/1999/xlink" x="0px" y="0px"
	 viewBox="0 0 5500 3700" style="enable-background:new 0 0 5500 3700;" xml:space="preserve">
<style type="text/css">
	.st0{fill:url(#SVGID_1_);}
	.st1{fill:url(#SVGID_2_);}
	.st2{fill:url(#SVGID_3_);}
	.st3{fill:url(#SVGID_4_);}
	.st4{fill:url(#SVGID_5_);}
	.st5{fill:url(#SVGID_6_);}
	.st6{fill:url(#SVGID_7_);}
	.st7{fill:url(#SVGID_8_);}
	.st8{fill:none;}
	.st9{fill:url(#SVGID_9_);}
	.st10{fill:url(#SVGID_10_);}
	.st11{fill:url(#SVGID_11_);}
	.st12{fill:url(#SVGID_12_);}
	.st13{fill:url(#SVGID_13_);}
	.st14{fill:url(#SVGID_14_);}
	.st15{fill:url(#SVGID_15_);}
	.st16{fill:url(#SVGID_16_);}
	.st17{fill:url(#SVGID_17_);}
	.st18{fill:url(#SVGID_18_);}
	.st19{fill:url(#SVGID_19_);}
	.st20{fill:url(#SVGID_20_);}
	.st21{fill:url(#SVGID_21_);}
	.st22{fill:url(#SVGID_22_);}
	.st23{fill:url(#SVGID_23_);}
	.st24{fill:url(#SVGID_24_);}
	.st25{fill:url(#SVGID_25_);}
	.st26{fill:url(#SVGID_26_);}
	.st27{fill:url(#SVGID_27_);}
	.st28{fill:url(#SVGID_28_);}
	.st29{fill:url(#SVGID_29_);}
	.st30{fill:url(#SVGID_30_);}
	.st31{fill:url(#SVGID_31_);}
	.st32{fill:url(#SVGID_32_);}
	.st33{fill:url(#SVGID_33_);}
	.st34{fill:url(#SVGID_34_);}
	.st35{fill:url(#SVGID_35_);}
</style>
<g>
	<linearGradient id="SVGID_1_" gradientUnits="userSpaceOnUse" x1="2748.6008" y1="1201.0948" x2="2765.7378" y2="2477.7925">
		<stop  offset="0" style="stop-color:#FCC40F"/>
		<stop  offset="1" style="stop-color:#EB6D12"/>
	</linearGradient>
	<path class="st0" d="M2835.7,1524.6c-0.5-2.6-2.7-4.4-5.3-4.4h-137.5c-2.6,0-4.8,1.9-5.3,4.4l-117.2,648.8
		c-0.6,3.3,1.9,6.3,5.3,6.3h129c2.7,0,5-2,5.3-4.6l10.3-71.6c0.4-2.7,2.7-4.6,5.3-4.6h71.9c2.7,0,4.9,2,5.3,4.6l10.3,71.6
		c0.4,2.7,2.7,4.6,5.3,4.6h129c3.4,0,5.9-3,5.3-6.3L2835.7,1524.6z M2780.6,1987h-37.8c-3.3,0-5.8-2.9-5.3-6.1l19.2-145.1
		c0.8-6.3,9.9-6.2,10.7,0l18.6,145.1C2786.4,1984.1,2783.9,1987,2780.6,1987z"/>
	<linearGradient id="SVGID_2_" gradientUnits="userSpaceOnUse" x1="3099.9097" y1="1196.3793" x2="3117.0464" y2="2473.0769">
		<stop  offset="0" style="stop-color:#FCC40F"/>
		<stop  offset="1" style="stop-color:#EB6D12"/>
	</linearGradient>
	<path class="st1" d="M3190.3,1791.3h-81.7c-12.2,0-15.3-2.6-15.3-12.7v-118.5c0-6.1,2-10,11.8-10h146c3.4,0,5.9-3.1,5.3-6.4
		l-22.1-119.2c-0.5-2.6-2.7-4.4-5.3-4.4h-178.7c-59.6,0-92.4,31.5-92.4,88.8v220.8c0,68.6,37.1,78,77.1,78h67.3
		c17.6,0,19.8,0.5,19.8,14.4v118.5c0,6.7-0.9,9.1-10.9,9.1h-138.8c-3.4,0-5.9,3.1-5.3,6.4l23,119.2c0.5,2.5,2.7,4.4,5.3,4.4h159.9
		c75.8,0,104-28,104-103.1v-214.5C3259.4,1814.5,3236.8,1791.3,3190.3,1791.3z"/>
	<linearGradient id="SVGID_3_" gradientUnits="userSpaceOnUse" x1="3429.3054" y1="1191.9579" x2="3446.4424" y2="2468.6555">
		<stop  offset="0" style="stop-color:#FCC40F"/>
		<stop  offset="1" style="stop-color:#EB6D12"/>
	</linearGradient>
	<path class="st2" d="M3561,1524.2c-0.6-2.4-2.8-4-5.2-4h-239.1c-2.4,0-4.5,1.6-5.2,3.9l-33.6,119.2c-1,3.4,1.6,6.8,5.2,6.8h76
		c3,0,5.4,2.4,5.4,5.4v518.9c0,3,2.4,5.4,5.4,5.4h130.9c3,0,5.4-2.4,5.4-5.4v-518.9c0-3,2.4-5.4,5.4-5.4h76c3.5,0,6.1-3.4,5.2-6.8
		L3561,1524.2z"/>
	<linearGradient id="SVGID_4_" gradientUnits="userSpaceOnUse" x1="3752.7903" y1="1187.6158" x2="3769.927" y2="2464.3135">
		<stop  offset="0" style="stop-color:#FCC40F"/>
		<stop  offset="1" style="stop-color:#EB6D12"/>
	</linearGradient>
	<path class="st3" d="M3882.4,1524.6c-0.5-2.6-2.7-4.4-5.3-4.4h-251.3c-3,0-5.4,2.4-5.4,5.4v648.8c0,3,2.4,5.4,5.4,5.4h246
		c2.6,0,4.8-1.9,5.3-4.4l22.1-119.2c0.6-3.3-1.9-6.4-5.3-6.4h-125.5c-3,0-5.4-2.4-5.4-5.4v-122.2c0-3,2.4-5.4,5.4-5.4h96.9
		c3,0,5.4-2.4,5.4-5.4v-110.2c0-3-2.4-5.4-5.4-5.4h-96.9c-3,0-5.4-2.4-5.4-5.4v-134.8c0-3,2.4-5.4,5.4-5.4h130.9
		c3.4,0,5.9-3.1,5.3-6.4L3882.4,1524.6z"/>
	<linearGradient id="SVGID_5_" gradientUnits="userSpaceOnUse" x1="4104.1172" y1="1182.9" x2="4121.2539" y2="2459.5977">
		<stop  offset="0" style="stop-color:#FCC40F"/>
		<stop  offset="1" style="stop-color:#EB6D12"/>
	</linearGradient>
	<path class="st4" d="M4229.8,1978.4c-1-3.1,0.9-6.4,4.1-7c33-5.6,50.6-34,50.6-60.9V1609c0-57.3-32.8-88.8-92.4-88.8h-245.9
		c-3,0-5.4,2.4-5.4,5.4v648.8c0,3,2.4,5.4,5.4,5.4h128.2c3,0,5.4-2.4,5.4-5.4v-196.6c0-3,2.4-5.4,5.4-5.4h0c2.4,0,4.5,1.6,5.2,3.8
		l60.5,199.7c0.7,2.3,2.8,3.8,5.2,3.8h132.6c3.7,0,6.3-3.6,5.1-7.1L4229.8,1978.4z M4147.3,1849.5c0,8.3-1.4,9.1-8.2,9.1h-53.9
		c-3,0-5.4-2.4-5.4-5.4v-204.8c0-3,2.4-5.4,5.4-5.4h53.9c4.2,0,8.2,1.1,8.2,9.1V1849.5z"/>
	<linearGradient id="SVGID_6_" gradientUnits="userSpaceOnUse" x1="4471.313" y1="1177.9712" x2="4488.4497" y2="2454.6689">
		<stop  offset="0" style="stop-color:#FCC40F"/>
		<stop  offset="1" style="stop-color:#EB6D12"/>
	</linearGradient>
	<path class="st5" d="M4562,1791.3h-81.7c-12.2,0-15.3-2.6-15.3-12.7v-118.5c0-6.1,2-10,11.8-10h146c3.4,0,5.9-3.1,5.3-6.4
		l-22.1-119.2c-0.5-2.6-2.7-4.4-5.3-4.4h-178.7c-59.6,0-92.4,31.5-92.4,88.8v220.8c0,68.6,37.1,78,77.1,78h67.3
		c17.6,0,19.8,0.5,19.8,14.4v118.5c0,6.7-0.9,9.1-10.9,9.1h-138.8c-3.4,0-5.9,3.1-5.3,6.4l23,119.2c0.5,2.5,2.7,4.4,5.3,4.4H4527
		c75.8,0,104-28,104-103.1v-214.5C4631,1814.5,4608.4,1791.3,4562,1791.3z"/>
	<linearGradient id="SVGID_7_" gradientUnits="userSpaceOnUse" x1="1145.3325" y1="1236.6146" x2="1013.9235" y2="2527.8513">
		<stop  offset="3.517588e-02" style="stop-color:#F2F2F2"/>
		<stop  offset="0.1658" style="stop-color:#CCCCCC"/>
		<stop  offset="0.294" style="stop-color:#F2F2F2"/>
		<stop  offset="0.4598" style="stop-color:#FFFFFF"/>
		<stop  offset="0.6357" style="stop-color:#CCCCCC"/>
		<stop  offset="0.8116" style="stop-color:#FFFFFF"/>
		<stop  offset="1" style="stop-color:#CCCCCC"/>
	</linearGradient>
	<path class="st6" d="M1269.3,1520.2h-100c-11.8,0-22.2,8-25.1,19.4l-57.3,221.8c-1.4,5.4-9,5.4-10.4,0l-58.1-224.9
		c-2.5-9.6-11.2-16.4-21.1-16.4H890.8c-12,0-21.8,9.8-21.8,21.8v632.4c0,3,2.4,5.4,5.4,5.4H999c3,0,5.4-2.4,5.4-5.4v-242.1
		c0-6.2,8.7-7.5,10.5-1.6l61.6,196.4c1.6,5,8.7,5,10.3,0l62.5-197.1c1.9-5.9,10.5-4.5,10.5,1.6v242.8c0,3,2.4,5.4,5.4,5.4h124.6
		c3,0,5.4-2.4,5.4-5.4v-628.3C1295.2,1531.8,1283.6,1520.2,1269.3,1520.2z"/>
	<linearGradient id="SVGID_8_" gradientUnits="userSpaceOnUse" x1="1566.6146" y1="1279.4885" x2="1435.2056" y2="2570.7251">
		<stop  offset="3.517588e-02" style="stop-color:#F2F2F2"/>
		<stop  offset="0.1658" style="stop-color:#CCCCCC"/>
		<stop  offset="0.294" style="stop-color:#F2F2F2"/>
		<stop  offset="0.4598" style="stop-color:#FFFFFF"/>
		<stop  offset="0.6357" style="stop-color:#CCCCCC"/>
		<stop  offset="0.8116" style="stop-color:#FFFFFF"/>
		<stop  offset="1" style="stop-color:#CCCCCC"/>
	</linearGradient>
	<path class="st7" d="M1680.3,1520.2h-130.9c-3,0-5.4,2.4-5.4,5.4V2047c0,8.7-1,10-8.2,10h-45.8c-7.2,0-8.2-1.2-8.2-10v-521.5
		c0-3-2.4-5.4-5.4-5.4h-130.9c-3,0-5.4,2.4-5.4,5.4v549.3c0,75.5,29.7,104.9,105.8,104.9h133.8c76.2,0,105.8-29.4,105.8-104.9
		v-549.3C1685.7,1522.6,1683.3,1520.2,1680.3,1520.2z"/>
	<g>
		<path class="st8" d="M2071.7,2000.4c-2,1.3-4,2.6-6,3.9c-7.7,4.9-15.5,9.9-23.3,14.9c10.5,7.3,20.2,14,29.3,20.3
			c1.3,0.9,2.7,1.8,3.9,2.7c5.4,3.8,10.8,7.5,16.3,11.2l1.8,1.2l1.9-69.7c-6.3,4.1-12.5,8.1-18.7,12.2
			C2075.2,1998.2,2073.4,1999.3,2071.7,2000.4z"/>
		<path class="st8" d="M2072.7,1794c-0.3,1.9-0.6,3.7-1,5.6v21.7c8.3-4.6,16.6-9.3,24.8-13.9c-4.2-2.4-8.4-4.7-12.5-7
			C2080.3,1798.2,2076.5,1796.1,2072.7,1794z"/>
		<path class="st8" d="M2054.5,1917.3c5.6,3.6,11.4,7.2,17.1,10.8c0,0,0.1,0.1,0.1,0.1c3.3,2.1,6.7,4.2,10,6.3l15,9.5l1.5-52.9
			l-15.6,9.3c-3.6,2.2-7.3,4.4-10.9,6.6C2066,1910.5,2060.3,1913.9,2054.5,1917.3z"/>
		<path class="st8" d="M2100,1822.7c-4.1,2.3-8.2,4.7-12.4,7c-5.3,3-10.6,6-16,9v1.8c9.1,5.4,18.2,10.8,27.4,16.2L2100,1822.7z"/>
		<path class="st8" d="M2071.7,1859c-3.1-1.9-6.2-3.7-9.3-5.6c-1.7,9.6-3.4,19.4-5.1,29.3l-2.6,15.3c5.7-3.4,11.4-6.7,17-10
			c0.3-0.2,0.5-0.3,0.8-0.5c7.9-4.7,15.8-9.3,23.5-13.9c-6.9-4.1-13.8-8.3-20.6-12.4C2074.2,1860.5,2073,1859.8,2071.7,1859z"/>
		<path class="st8" d="M2071.7,1768.8h5.3l-0.4,2.5c-0.2,1.4-0.5,2.9-0.7,4.4c-0.2,0.9-0.3,1.9-0.5,2.8c6,3.3,11.9,6.7,17.9,10.1
			c2.5,1.4,5,2.8,7.5,4.2l0.7-24h15.3v-2.4h-45V1768.8z"/>
		<linearGradient id="SVGID_9_" gradientUnits="userSpaceOnUse" x1="1957.3516" y1="1319.2538" x2="1825.9425" y2="2610.4905">
			<stop  offset="3.517588e-02" style="stop-color:#F2F2F2"/>
			<stop  offset="0.1658" style="stop-color:#CCCCCC"/>
			<stop  offset="0.294" style="stop-color:#F2F2F2"/>
			<stop  offset="0.4598" style="stop-color:#FFFFFF"/>
			<stop  offset="0.6357" style="stop-color:#CCCCCC"/>
			<stop  offset="0.8116" style="stop-color:#FFFFFF"/>
			<stop  offset="1" style="stop-color:#CCCCCC"/>
		</linearGradient>
		<path class="st9" d="M2101.5,1768.8l-0.7,24c-2.5-1.4-5-2.8-7.5-4.2c-6-3.4-11.9-6.8-17.9-10.1c0.1-0.9,0.3-1.9,0.5-2.8
			c0.3-1.5,0.5-2.9,0.7-4.4l0.4-2.5h-5.3v-2.4h45v-4.4h-45h-28.1v-16.9h28.1h24.7V1719h20.3v-4.4h-24.7v26.1h-20.3v-30.3l13.6-3.1
			l-1.8-2.7c-3.7-5.5-5.7-12-5.7-18.8c0-1.2,0.1-2.4,0.3-3.6l0.3-3.1l-6.7,1.5v-77.2c0-52.2-30.5-83.4-81.6-83.4h-254
			c-3,0-5.4,2.4-5.4,5.4v648.8c0,3,2.4,5.4,5.4,5.4h211.6V1826v-4.6l-8.6,2.3l-5.5-9.9l-46.9-84.1l1.5-56.6l45.5-12.2l6.4-1.7
			l30.2,49l101.5-23l1.7-0.4c0,0.3,0,0.7,0,1c0,6.5,1.7,12.9,4.8,18.5l-6.4,1.5L1970,1729l1.3,86.1l-9.6,2.6v4.6v357.5h4.2
			c2,0,3.9,0,5.8-0.1c1.5,0,3-0.1,4.5-0.1c9.6-46.6,18.6-90.6,27.2-132.1c7-33.8,13.6-66.1,19.9-96.8c5.7-27.6,11.1-54.1,16.4-79.5
			c7.1-34.5,13.8-67.1,20.1-98h11.9v0.7c-0.1,0.3-0.1,0.7-0.2,1c-0.3,1.5-0.5,2.9-0.7,4.4l-0.2,1.5l1.1,0.6l0.2,0.1
			c6.4,3.6,12.8,7.2,19.2,10.8c3.5,2,7.1,4,10.7,6l3.2,1.8l0.8-27h11v-4.4H2101.5z M1933.6,1656.4l-49.8,13.3l-1.6,61.1l51.4,92
			v225.1c0,8.4-0.6,9.1-8.2,9.1h-51.2c-3,0-5.4-2.4-5.4-5.4v-403.2c0-3,2.4-5.4,5.4-5.4h52.1c5.4,0,7.3,1.2,7.3,8.2V1656.4z"/>
		<linearGradient id="SVGID_10_" gradientUnits="userSpaceOnUse" x1="2134.1001" y1="1337.2415" x2="2002.6912" y2="2628.478">
			<stop  offset="3.517588e-02" style="stop-color:#F2F2F2"/>
			<stop  offset="0.1658" style="stop-color:#CCCCCC"/>
			<stop  offset="0.294" style="stop-color:#F2F2F2"/>
			<stop  offset="0.4598" style="stop-color:#FFFFFF"/>
			<stop  offset="0.6357" style="stop-color:#CCCCCC"/>
			<stop  offset="0.8116" style="stop-color:#FFFFFF"/>
			<stop  offset="1" style="stop-color:#CCCCCC"/>
		</linearGradient>
		<path class="st10" d="M2003.9,2166.1l-0.3,1.8c-0.5,3-1,6-1.5,9c1.6-0.3,3.1-0.6,4.6-0.9c6.5-1.4,12.4-3.2,17.8-5.5h66l-0.1,9.3
			h4.4l0.2-13.7h-61.5H2003.9z"/>
		<linearGradient id="SVGID_11_" gradientUnits="userSpaceOnUse" x1="2137.7493" y1="1337.6128" x2="2006.3401" y2="2628.8494">
			<stop  offset="3.517588e-02" style="stop-color:#F2F2F2"/>
			<stop  offset="0.1658" style="stop-color:#CCCCCC"/>
			<stop  offset="0.294" style="stop-color:#F2F2F2"/>
			<stop  offset="0.4598" style="stop-color:#FFFFFF"/>
			<stop  offset="0.6357" style="stop-color:#CCCCCC"/>
			<stop  offset="0.8116" style="stop-color:#FFFFFF"/>
			<stop  offset="1" style="stop-color:#CCCCCC"/>
		</linearGradient>
		<path class="st11" d="M2096.6,1979c-7.3,4.8-14.6,9.6-22.1,14.3c-0.9,0.6-1.9,1.2-2.8,1.8c-2.8,1.8-5.6,3.6-8.4,5.4
			c-8.6,5.5-17.3,11.1-26.1,16.6l-2.8,1.8l2.7,1.9c12.6,8.8,23.9,16.6,34.6,24c0.5,0.3,1,0.7,1.4,1c5.4,3.8,10.8,7.5,16.3,11.2
			l8.5,5.8l2.2-82l-0.1-4.1L2096.6,1979z M2093.7,2054.6l-1.8-1.2c-5.5-3.7-10.9-7.4-16.3-11.2c-1.3-0.9-2.6-1.8-3.9-2.7
			c-9.2-6.3-18.8-13-29.3-20.3c7.8-5,15.6-9.9,23.3-14.9c2-1.3,4-2.6,6-3.9c1.7-1.1,3.5-2.2,5.2-3.3c6.3-4,12.5-8.1,18.7-12.2
			L2093.7,2054.6z"/>
		<linearGradient id="SVGID_12_" gradientUnits="userSpaceOnUse" x1="2131.9248" y1="1337.02" x2="2000.5157" y2="2628.2566">
			<stop  offset="3.517588e-02" style="stop-color:#F2F2F2"/>
			<stop  offset="0.1658" style="stop-color:#CCCCCC"/>
			<stop  offset="0.294" style="stop-color:#F2F2F2"/>
			<stop  offset="0.4598" style="stop-color:#FFFFFF"/>
			<stop  offset="0.6357" style="stop-color:#CCCCCC"/>
			<stop  offset="0.8116" style="stop-color:#FFFFFF"/>
			<stop  offset="1" style="stop-color:#CCCCCC"/>
		</linearGradient>
		<path class="st12" d="M2071.7,1943.7c-8.3-5.3-16.2-10.5-23.6-15.2l-2.8-1.8l-0.6,3.3c-3.4,19.9-6.9,40.3-10.6,61.5l-3.3,18.8
			l4.2-2.7c11.2-7.1,22.4-14.2,33.3-21.1c1.1-0.7,2.2-1.4,3.3-2.1c2.1-1.3,4.2-2.7,6.3-4c7.1-4.5,14.5-9.1,21.5-13.7l0.9-0.6
			l0.4-3.8l-1.2-0.7C2090.2,1955.5,2080.7,1949.5,2071.7,1943.7z M2075.7,1976.6c-1.3,0.8-2.6,1.7-4,2.5c-1.9,1.2-3.8,2.4-5.7,3.6
			c-9.5,6.1-19.3,12.3-29.1,18.5l1.6-9.1c3.5-19.9,6.8-39.3,10.1-58.2c7.3,4.7,15.1,9.7,23.2,14.9c7.7,4.9,15.7,10,23.7,15.1
			C2088.9,1968.3,2082.2,1972.5,2075.7,1976.6z"/>
		<linearGradient id="SVGID_13_" gradientUnits="userSpaceOnUse" x1="2138.2993" y1="1337.6688" x2="2006.8904" y2="2628.9055">
			<stop  offset="3.517588e-02" style="stop-color:#F2F2F2"/>
			<stop  offset="0.1658" style="stop-color:#CCCCCC"/>
			<stop  offset="0.294" style="stop-color:#F2F2F2"/>
			<stop  offset="0.4598" style="stop-color:#FFFFFF"/>
			<stop  offset="0.6357" style="stop-color:#CCCCCC"/>
			<stop  offset="0.8116" style="stop-color:#FFFFFF"/>
			<stop  offset="1" style="stop-color:#CCCCCC"/>
		</linearGradient>
		<path class="st13" d="M2066.6,2117.2c-5.3,3.7-10.6,7.4-16,11.1c-9.9,6.9-19.9,13.8-30,20.9l-5.7,4h34.6h45.9l1.4-57.2l-29.4,20.5
			L2066.6,2117.2z M2092.4,2104.6l-1.1,44.2h-37.9h-24.4c8.1-5.7,16.2-11.3,24.3-16.9c4.3-3,8.5-5.9,12.7-8.9
			c1.1-0.7,2.2-1.5,3.2-2.3L2092.4,2104.6z"/>
		<linearGradient id="SVGID_14_" gradientUnits="userSpaceOnUse" x1="2131.5615" y1="1336.9832" x2="2000.1525" y2="2628.2197">
			<stop  offset="3.517588e-02" style="stop-color:#F2F2F2"/>
			<stop  offset="0.1658" style="stop-color:#CCCCCC"/>
			<stop  offset="0.294" style="stop-color:#F2F2F2"/>
			<stop  offset="0.4598" style="stop-color:#FFFFFF"/>
			<stop  offset="0.6357" style="stop-color:#CCCCCC"/>
			<stop  offset="0.8116" style="stop-color:#FFFFFF"/>
			<stop  offset="1" style="stop-color:#CCCCCC"/>
		</linearGradient>
		<path class="st14" d="M2078.5,2062.4c-2.3-1.6-4.6-3.2-6.8-4.7c-2.3-1.6-4.7-3.2-6.9-4.8l-14.6-10.2c-6.5-4.6-13-9.1-19.3-13.6
			l-2.8-2l-2.3,13.1c-5.4,31.5-11.1,64.5-17.2,98.9l-0.9,5.2l4.3-3c7.2-5,14.3-9.9,21.4-14.7c7.9-5.4,15.7-10.8,23.4-16.2
			c4.5-3.1,9-6.2,13.5-9.3c1.1-0.7,2.2-1.5,3.2-2.2c7.7-5.3,15.4-10.6,23-15.9l0.9-0.6l0.2-6.7l-1-0.7
			C2090.6,2070.8,2084.5,2066.6,2078.5,2062.4z M2093.1,2079.9c-7.3,5.1-14.7,10.1-22.1,15.2c0,0-0.1,0.1-0.1,0.1
			c-5.5,3.8-11,7.6-16.6,11.4c-7.8,5.4-15.6,10.7-23.4,16.1c-5.7,3.9-11.3,7.8-17.1,11.8c5.7-32.6,11.1-63.8,16.3-93.8l1.1-6.2
			c5.4,3.8,10.9,7.7,16.5,11.6l14.6,10.2c3.1,2.2,6.3,4.4,9.5,6.6c1.4,1,2.9,2,4.3,3c5.7,4,11.4,7.9,17.1,11.9L2093.1,2079.9z"/>
		<linearGradient id="SVGID_15_" gradientUnits="userSpaceOnUse" x1="2132.9893" y1="1337.1284" x2="2001.5803" y2="2628.365">
			<stop  offset="3.517588e-02" style="stop-color:#F2F2F2"/>
			<stop  offset="0.1658" style="stop-color:#CCCCCC"/>
			<stop  offset="0.294" style="stop-color:#F2F2F2"/>
			<stop  offset="0.4598" style="stop-color:#FFFFFF"/>
			<stop  offset="0.6357" style="stop-color:#CCCCCC"/>
			<stop  offset="0.8116" style="stop-color:#FFFFFF"/>
			<stop  offset="1" style="stop-color:#CCCCCC"/>
		</linearGradient>
		<path class="st15" d="M2077.7,1857.5c-2-1.2-4-2.4-6-3.6c-3.3-2-6.5-3.9-9.8-5.9l-2.7-1.6l-0.6,3.2c-1.9,10.7-3.7,21.5-5.6,32.5
			l-4.3,24.7l4.1-2.4c6.3-3.8,12.6-7.5,18.9-11.1c1-0.6,2-1.2,3.1-1.8c9-5.3,17.9-10.6,26.7-15.8l3.2-1.9l-3.2-1.9
			C2093.5,1867,2085.6,1862.2,2077.7,1857.5z M2072.5,1887.5c-0.3,0.2-0.5,0.3-0.8,0.5c-5.6,3.3-11.3,6.7-17,10l2.6-15.3
			c1.7-9.9,3.4-19.7,5.1-29.3c3.1,1.8,6.2,3.7,9.3,5.6c1.2,0.7,2.5,1.5,3.7,2.2c6.8,4.1,13.7,8.2,20.6,12.4
			C2088.3,1878.2,2080.5,1882.9,2072.5,1887.5z"/>
		<linearGradient id="SVGID_16_" gradientUnits="userSpaceOnUse" x1="2134.3054" y1="1337.2623" x2="2002.8962" y2="2628.499">
			<stop  offset="3.517588e-02" style="stop-color:#F2F2F2"/>
			<stop  offset="0.1658" style="stop-color:#CCCCCC"/>
			<stop  offset="0.294" style="stop-color:#F2F2F2"/>
			<stop  offset="0.4598" style="stop-color:#FFFFFF"/>
			<stop  offset="0.6357" style="stop-color:#CCCCCC"/>
			<stop  offset="0.8116" style="stop-color:#FFFFFF"/>
			<stop  offset="1" style="stop-color:#CCCCCC"/>
		</linearGradient>
		<path class="st16" d="M2071.7,1901.9c-7.5,4.5-15,9-22.5,13.5l-3.1,1.8l3,1.9c6.6,4.3,13.4,8.5,20.1,12.8c0.8,0.5,1.6,1,2.5,1.6
			c2.5,1.6,5.1,3.2,7.6,4.8l21.6,13.7l1.9-68.7l-22.4,13.4C2077.5,1898.4,2074.6,1900.1,2071.7,1901.9z M2098.2,1891.2l-1.5,52.9
			l-15-9.5c-3.3-2.1-6.6-4.2-10-6.3c0,0-0.1-0.1-0.1-0.1c-5.7-3.6-11.4-7.2-17.1-10.8c5.8-3.4,11.5-6.9,17.2-10.3
			c3.6-2.2,7.3-4.4,10.9-6.6L2098.2,1891.2z"/>
		<linearGradient id="SVGID_17_" gradientUnits="userSpaceOnUse" x1="2134.7158" y1="1337.3041" x2="2003.3068" y2="2628.5408">
			<stop  offset="3.517588e-02" style="stop-color:#F2F2F2"/>
			<stop  offset="0.1658" style="stop-color:#CCCCCC"/>
			<stop  offset="0.294" style="stop-color:#F2F2F2"/>
			<stop  offset="0.4598" style="stop-color:#FFFFFF"/>
			<stop  offset="0.6357" style="stop-color:#CCCCCC"/>
			<stop  offset="0.8116" style="stop-color:#FFFFFF"/>
			<stop  offset="1" style="stop-color:#CCCCCC"/>
		</linearGradient>
		<path class="st17" d="M2071.7,1845.7c9.4,5.6,18.8,11.1,28.4,16.8l3.2,1.9l1.3-49.3l-3.4,1.9c-5.2,3-10.5,5.9-15.8,8.9
			c-4.6,2.6-9.2,5.2-13.8,7.8c-2.3,1.3-4.7,2.6-7,4l-3.3,1.9l3.3,1.9C2067,1842.9,2069.4,1844.3,2071.7,1845.7z M2071.7,1838.8
			c5.3-3,10.7-6,16-9c4.1-2.3,8.3-4.7,12.4-7l-0.9,34c-9.2-5.5-18.3-10.8-27.4-16.2V1838.8z"/>
		<linearGradient id="SVGID_18_" gradientUnits="userSpaceOnUse" x1="2132.759" y1="1337.105" x2="2001.3501" y2="2628.3416">
			<stop  offset="3.517588e-02" style="stop-color:#F2F2F2"/>
			<stop  offset="0.1658" style="stop-color:#CCCCCC"/>
			<stop  offset="0.294" style="stop-color:#F2F2F2"/>
			<stop  offset="0.4598" style="stop-color:#FFFFFF"/>
			<stop  offset="0.6357" style="stop-color:#CCCCCC"/>
			<stop  offset="0.8116" style="stop-color:#FFFFFF"/>
			<stop  offset="1" style="stop-color:#CCCCCC"/>
		</linearGradient>
		<path class="st18" d="M2086.2,1796.6c-4.7-2.7-9.4-5.3-14.1-7.9l-0.4-0.2l-2.4-1.3l-0.5,3.1c-1.1,6.7-2.3,13.3-3.4,20.1
			c-1,5.6-2,11.3-2.9,17.1l-0.8,4.5l4-2.2c2-1.1,4-2.2,6-3.4c10.2-5.7,20.4-11.4,30.4-17.1l3.4-1.9l-3.4-1.9
			C2096.8,1802.5,2091.5,1799.5,2086.2,1796.6z M2071.7,1821.3v-21.7c0.3-1.9,0.7-3.8,1-5.6c3.8,2.1,7.6,4.2,11.4,6.4
			c4.1,2.3,8.3,4.7,12.5,7C2088.3,1812.1,2080,1816.7,2071.7,1821.3z"/>
		<linearGradient id="SVGID_19_" gradientUnits="userSpaceOnUse" x1="2136.8987" y1="1337.5262" x2="2005.4897" y2="2628.7629">
			<stop  offset="3.517588e-02" style="stop-color:#F2F2F2"/>
			<stop  offset="0.1658" style="stop-color:#CCCCCC"/>
			<stop  offset="0.294" style="stop-color:#F2F2F2"/>
			<stop  offset="0.4598" style="stop-color:#FFFFFF"/>
			<stop  offset="0.6357" style="stop-color:#CCCCCC"/>
			<stop  offset="0.8116" style="stop-color:#FFFFFF"/>
			<stop  offset="1" style="stop-color:#CCCCCC"/>
		</linearGradient>
		<path class="st19" d="M2116.8,1709.4c-1.6,0.3-3.2,0.5-4.9,0.5c-13.2,0-24-10.8-24-24c0-13.2,10.8-24,24-24c1.7,0,3.3,0.2,4.9,0.5
			l0,0v-4.5l0,0c-1.6-0.3-3.2-0.5-4.9-0.5c-15.7,0-28.4,12.8-28.4,28.4c0,15.7,12.8,28.4,28.4,28.4c1.7,0,3.3-0.2,4.9-0.5l0,0
			V1709.4L2116.8,1709.4z"/>
		<linearGradient id="SVGID_20_" gradientUnits="userSpaceOnUse" x1="2143.4106" y1="1338.1862" x2="2012.0016" y2="2629.4229">
			<stop  offset="3.517588e-02" style="stop-color:#F2F2F2"/>
			<stop  offset="0.1658" style="stop-color:#CCCCCC"/>
			<stop  offset="0.294" style="stop-color:#F2F2F2"/>
			<stop  offset="0.4598" style="stop-color:#FFFFFF"/>
			<stop  offset="0.6357" style="stop-color:#CCCCCC"/>
			<stop  offset="0.8116" style="stop-color:#FFFFFF"/>
			<stop  offset="1" style="stop-color:#CCCCCC"/>
		</linearGradient>
		<path class="st20" d="M2116.8,1694.1c-1.4,0.9-3.1,1.4-4.9,1.4c-5.2,0-9.4-4.3-9.4-9.6c0-5.3,4.2-9.6,9.4-9.6
			c1.8,0,3.5,0.5,4.9,1.4v0v-4.9l0,0c-1.5-0.6-3.2-0.9-4.9-0.9c-7.6,0-13.8,6.3-13.8,14c0,7.7,6.2,14,13.8,14c1.7,0,3.4-0.3,4.9-0.9
			l0,0V1694.1L2116.8,1694.1z"/>
	</g>
	<g>
		<linearGradient id="SVGID_21_" gradientUnits="userSpaceOnUse" x1="2266.9104" y1="1207.5604" x2="2284.0474" y2="2484.2581">
			<stop  offset="0" style="stop-color:#FCC40F"/>
			<stop  offset="1" style="stop-color:#EB6D12"/>
		</linearGradient>
		<polygon class="st21" points="2279.6,1669.1 2269.5,1671.4 2269.5,1887.4 2279.6,1887.4 		"/>
		<g>
			<linearGradient id="SVGID_22_" gradientUnits="userSpaceOnUse" x1="2133.4431" y1="1209.3519" x2="2150.5801" y2="2486.0496">
				<stop  offset="0" style="stop-color:#FCC40F"/>
				<stop  offset="1" style="stop-color:#EB6D12"/>
			</linearGradient>
			<path class="st22" d="M2150.9,1794c-4.2,2.4-8.4,4.8-12.6,7.1c-3.7,2.1-7.5,4.2-11.2,6.4c4.5,2.5,9,5,13.6,7.6
				c5.1,2.8,10.2,5.7,15.4,8.6c-1.3-7.4-2.6-14.7-3.8-21.9L2150.9,1794z"/>
			<linearGradient id="SVGID_23_" gradientUnits="userSpaceOnUse" x1="2130.1753" y1="1209.3959" x2="2147.3123" y2="2486.0935">
				<stop  offset="0" style="stop-color:#FCC40F"/>
				<stop  offset="1" style="stop-color:#EB6D12"/>
			</linearGradient>
			<path class="st23" d="M2123.6,1822.9l0.9,33.9c3.7-2.2,7.4-4.4,11.1-6.6c5.9-3.5,11.8-7,17.7-10.5c-6.7-3.8-13.4-7.6-20-11.3
				C2130.1,1826.5,2126.9,1824.7,2123.6,1822.9z"/>
			<linearGradient id="SVGID_24_" gradientUnits="userSpaceOnUse" x1="2323.7727" y1="1206.7972" x2="2340.9097" y2="2483.4949">
				<stop  offset="0" style="stop-color:#FCC40F"/>
				<stop  offset="1" style="stop-color:#EB6D12"/>
			</linearGradient>
			<path class="st24" d="M2512,1520.2h-91.1c-14.1,0-26.5,9.6-30,23.2l-56.3,218c-1.4,5.4-9,5.4-10.4,0L2298,1660v-36.4l-8.9,2
				l-21.2-82.2c-3.5-13.7-15.9-23.2-30-23.2h-90.2c-17.1,0-31,13.9-31,31V1658c13.3,2.3,23.5,14,23.5,28c0,14-10.2,25.6-23.5,28v0.7
				v4.4h10.5v26.1h52.9v16.9h-63.3v4.4v2.4v4.4h1.2l0.8,27l3.2-1.8c3.6-2,7.1-4,10.7-6c6.4-3.6,12.8-7.3,19.2-10.8l1.4-0.8l-0.3-1.6
				c-0.4-2-0.7-4-1-6h12.1c6.3,30.9,13,63.6,20.2,98.2c5.2,25.4,10.7,51.9,16.3,79.4c13.8,67,29.2,142.1,47.2,229
				c1.7-0.3,3.1-1.3,3.9-2.8c0.4-0.7,0.6-1.6,0.6-2.5v-146.2h41.1l31,98.9c1.6,5,8.7,5,10.3,0l62.5-197.1c1.9-5.9,10.5-4.5,10.5,1.6
				v242.8c0,3,2.4,5.4,5.4,5.4h124.6c3,0,5.4-2.4,5.4-5.4v-623.3C2543,1534.1,2529.1,1520.2,2512,1520.2z M2150.3,1688.2
				c0.1-0.8,0.1-1.5,0.1-2.3c0-6.1-1.5-12.1-4.2-17.5l109.4-24.8v-5.8l34.7-7.9l3.4-0.8v13.8v18.4l-5.2,1.3v229.2h16.6v25.4h-60.8
				v-25.4h16.6v-222.9l-5.2,1.1v-5.7L2150.3,1688.2z M2324.1,1939.4h-9.6v74.4h9.6v9.9h-32.2h-39.7H2225v-9.9h9.6v-74.4h-9.6v-9.9
				h27.8h9.3h62V1939.4z"/>
			<linearGradient id="SVGID_25_" gradientUnits="userSpaceOnUse" x1="2162.3796" y1="1208.9636" x2="2179.5166" y2="2485.6611">
				<stop  offset="0" style="stop-color:#FCC40F"/>
				<stop  offset="1" style="stop-color:#EB6D12"/>
			</linearGradient>
			<path class="st25" d="M2219.7,2166.1h-91.1l0.2,13.7h4.4h84.4h4.5c-0.7-4-1.3-7.9-2-11.9L2219.7,2166.1z"/>
			<linearGradient id="SVGID_26_" gradientUnits="userSpaceOnUse" x1="2147.425" y1="1209.1643" x2="2164.562" y2="2485.8621">
				<stop  offset="0" style="stop-color:#FCC40F"/>
				<stop  offset="1" style="stop-color:#EB6D12"/>
			</linearGradient>
			<path class="st26" d="M2155.2,1986.5c6.7,4.2,13.4,8.5,20.1,12.8c4.4,2.8,8.8,5.6,13.2,8.4l4.2,2.6l-0.8-4.9
				c-2.4-14.5-4.9-28.7-7.3-42.6c-1.9-11.1-3.8-22.1-5.6-32.8l-0.6-3.3l-2.8,1.8c-10.8,7-21.7,14-32.8,21.1c-6.2,4-12.4,7.9-18.7,12
				l-1,0.7v4l6.4,4.1C2137.9,1975.6,2146.5,1981.1,2155.2,1986.5z M2145.2,1953.2c10.1-6.5,20.1-12.9,30-19.3
				c1.7,9.7,3.3,19.5,5.1,29.5c2.1,12.3,4.3,24.9,6.5,37.7c-3-1.9-6-3.8-9-5.7c-6.7-4.3-13.4-8.6-20.2-12.8
				c-8.6-5.4-17.2-10.9-25.6-16.2l-3.7-2.4C2133.9,1960.5,2139.5,1956.8,2145.2,1953.2z"/>
			<linearGradient id="SVGID_27_" gradientUnits="userSpaceOnUse" x1="2155.2981" y1="1209.0586" x2="2172.4351" y2="2485.7563">
				<stop  offset="0" style="stop-color:#FCC40F"/>
				<stop  offset="1" style="stop-color:#EB6D12"/>
			</linearGradient>
			<path class="st27" d="M2202.8,2149.2c-11.8-8.4-23.6-16.6-35.2-24.7l-10.6-7.4c-9-6.2-18-12.5-26.8-18.7l-3.6-2.6l1.6,57.3h80.2
				L2202.8,2149.2z M2132.6,2148.8l-1.2-44.2c7.6,5.4,15.4,10.8,23.2,16.2l10.6,7.4c9.8,6.8,19.6,13.7,29.5,20.7H2132.6z"/>
			<linearGradient id="SVGID_28_" gradientUnits="userSpaceOnUse" x1="2145.7583" y1="1209.1866" x2="2162.8953" y2="2485.8843">
				<stop  offset="0" style="stop-color:#FCC40F"/>
				<stop  offset="1" style="stop-color:#EB6D12"/>
			</linearGradient>
			<path class="st28" d="M2142.9,2051l7.5-5.2c8.3-5.7,16.6-11.4,24.8-17.1l14.1-9.7l-2.8-1.8c-6.9-4.3-13.7-8.7-20.5-13.1
				c-5.7-3.6-11.3-7.2-16.8-10.7c-7.2-4.7-14.7-9.6-22.1-14.3l-3.5-2.2l2.4,86l3.4-2.3C2133.7,2057.3,2138.3,2054.1,2142.9,2051z
				 M2146.7,1997.1c5.6,3.5,11.2,7.1,16.9,10.7c5.9,3.8,11.8,7.5,17.7,11.3l-8.6,5.9c-8.2,5.7-16.5,11.4-24.8,17.1l-7.5,5.2
				c-3.5,2.4-7,4.8-10.4,7.2l-1.9-69.6C2134.3,1989,2140.6,1993.1,2146.7,1997.1z"/>
			<linearGradient id="SVGID_29_" gradientUnits="userSpaceOnUse" x1="2131.8928" y1="1209.3728" x2="2149.0298" y2="2486.0706">
				<stop  offset="0" style="stop-color:#FCC40F"/>
				<stop  offset="1" style="stop-color:#EB6D12"/>
			</linearGradient>
			<path class="st29" d="M2156.6,1801l-2.4-14l-2.7,1.6c-5,2.9-10.1,5.8-15.3,8.7c-4.9,2.7-9.7,5.5-14.6,8.3l-3.4,1.9l3.4,1.9
				c5.6,3.1,11.3,6.3,17,9.4c6.4,3.6,12.9,7.2,19.5,10.8l4,2.2l-0.8-4.6C2159.6,1818.5,2158.1,1809.7,2156.6,1801z M2140.7,1815.1
				c-4.5-2.5-9.1-5.1-13.6-7.6c3.7-2.1,7.5-4.3,11.2-6.4c4.2-2.4,8.4-4.8,12.6-7.1l1.3,7.7c1.3,7.2,2.5,14.5,3.8,21.9
				C2150.9,1820.8,2145.8,1817.9,2140.7,1815.1z"/>
			<linearGradient id="SVGID_30_" gradientUnits="userSpaceOnUse" x1="2137.7532" y1="1209.2942" x2="2154.8901" y2="2485.9917">
				<stop  offset="0" style="stop-color:#FCC40F"/>
				<stop  offset="1" style="stop-color:#EB6D12"/>
			</linearGradient>
			<path class="st30" d="M2156.6,1895.9l18.3,10.8l-0.8-4.7c-1-5.8-2-11.5-3-17.2c-2.1-12-4.2-23.7-6.1-35.3l-0.5-3.2l-12.6,7.5
				c-9.8,5.9-19.8,11.8-29.9,17.8l-3.2,1.9l3.2,1.9C2133.5,1882.3,2144.9,1889,2156.6,1895.9z M2154.2,1857.7l7-4.2
				c1.8,10.5,3.6,21.2,5.5,32.1c0.7,4.1,1.4,8.3,2.2,12.5l-10.1-6c-10.6-6.2-21-12.4-31.3-18.5
				C2136.5,1868.3,2145.4,1863,2154.2,1857.7z"/>
			<linearGradient id="SVGID_31_" gradientUnits="userSpaceOnUse" x1="2139.9456" y1="1209.2646" x2="2157.0825" y2="2485.9624">
				<stop  offset="0" style="stop-color:#FCC40F"/>
				<stop  offset="1" style="stop-color:#EB6D12"/>
			</linearGradient>
			<path class="st31" d="M2135.2,1944.1c3-1.9,6-3.9,9-5.8c10.2-6.4,20.3-12.8,30.3-19.1l3-1.9l-3.6-2.1
				c-10.1-6-20.6-12.3-30.7-18.4l-22.4-13.4l1.9,68.7l3.3-2.1C2129.1,1948,2132.1,1946,2135.2,1944.1z M2141,1900.4
				c9.2,5.6,18.8,11.3,28.1,16.9c-9.1,5.7-18.1,11.5-27.3,17.2c-3.1,1.9-6.1,3.9-9.1,5.8c-1.9,1.2-3.9,2.5-5.8,3.7l-1.5-52.9
				L2141,1900.4z"/>
			<linearGradient id="SVGID_32_" gradientUnits="userSpaceOnUse" x1="2158.844" y1="1209.011" x2="2175.981" y2="2485.7087">
				<stop  offset="0" style="stop-color:#FCC40F"/>
				<stop  offset="1" style="stop-color:#EB6D12"/>
			</linearGradient>
			<path class="st32" d="M2166.9,2110.3c10.1,7.1,20.4,14.2,30.8,21.3l18.2,12.5l-0.9-5.2c-6.5-38-12.8-74.1-18.7-108.6l-0.6-3.4
				l-2.8,2c-5.1,3.5-10.2,7.1-15.3,10.7c-6.2,4.4-12.3,8.7-18.6,13.1c-10.5,7.2-21.1,14.6-31.9,22.1l-1,0.7l0.2,6.8l18.4,12.6
				C2152,2100.1,2159.4,2105.2,2166.9,2110.3z M2130.5,2077.9c10.4-7.3,20.7-14.4,30.9-21.4c6.3-4.3,12.5-8.7,18.7-13.1
				c4.1-2.9,8.3-5.8,12.4-8.7c5.5,31.8,11.2,65.1,17.2,100l-9.5-6.6c-10.4-7.2-20.7-14.3-30.8-21.3l0,0
				c-7.5-5.1-14.9-10.2-22.2-15.2l-16.6-11.4L2130.5,2077.9z"/>
			<linearGradient id="SVGID_33_" gradientUnits="userSpaceOnUse" x1="2132.2905" y1="1209.3674" x2="2149.4275" y2="2486.0652">
				<stop  offset="0" style="stop-color:#FCC40F"/>
				<stop  offset="1" style="stop-color:#EB6D12"/>
			</linearGradient>
			<path class="st33" d="M2122.4,1817.1l-3.4-1.9l1.3,49.2l3.2-1.9c4.8-2.9,9.6-5.7,14.4-8.5c7-4.2,14-8.3,20.9-12.5l3.2-1.9
				l-3.3-1.9c-7.8-4.4-15.6-8.8-23.3-13.2C2131.1,1822,2126.8,1819.6,2122.4,1817.1z M2135.7,1850.1c-3.7,2.2-7.4,4.4-11.1,6.6
				l-0.9-33.9c3.2,1.8,6.5,3.6,9.7,5.5c6.7,3.7,13.4,7.5,20,11.3C2147.5,1843.1,2141.6,1846.6,2135.7,1850.1z"/>
			<linearGradient id="SVGID_34_" gradientUnits="userSpaceOnUse" x1="2121.9375" y1="1209.5065" x2="2139.0742" y2="2486.2041">
				<stop  offset="0" style="stop-color:#FCC40F"/>
				<stop  offset="1" style="stop-color:#EB6D12"/>
			</linearGradient>
			<path class="st34" d="M2140.3,1685.9c0-14-10.2-25.6-23.5-28v4.5c10.9,2.3,19.1,12,19.1,23.5c0,11.6-8.2,21.2-19.1,23.5v4.5
				C2130.1,1711.6,2140.3,1699.9,2140.3,1685.9z"/>
			<linearGradient id="SVGID_35_" gradientUnits="userSpaceOnUse" x1="2114.8086" y1="1209.6022" x2="2131.9456" y2="2486.2998">
				<stop  offset="0" style="stop-color:#FCC40F"/>
				<stop  offset="1" style="stop-color:#EB6D12"/>
			</linearGradient>
			<path class="st35" d="M2125.8,1685.9c0-6-3.8-11.1-9-13.1v4.9c2.8,1.7,4.6,4.7,4.6,8.2s-1.9,6.5-4.6,8.2v4.9
				C2122,1697,2125.8,1691.9,2125.8,1685.9z"/>
		</g>
	</g>
</g>
</svg>
